<svg width="220" height="165" viewBox="0 0 220 165" fill="none" xmlns="http://www.w3.org/2000/svg">
<path d="M110 164.358C157.116 164.358 195.312 162.128 195.312 159.377C195.312 156.626 157.116 154.396 110 154.396C62.8837 154.396 24.6884 156.626 24.6884 159.377C24.6884 162.128 62.8837 164.358 110 164.358Z" fill="#F5F5F5"/>
<path d="M166.122 24.2572H115.482C113.746 24.2858 112.082 24.9607 110.816 26.1502C109.55 27.3396 108.773 28.9583 108.636 30.69L100.76 151.936C100.696 152.762 100.804 153.592 101.078 154.373C101.352 155.155 101.786 155.871 102.352 156.475C102.918 157.08 103.603 157.56 104.364 157.885C105.126 158.211 105.947 158.374 106.775 158.365H157.432C159.168 158.337 160.832 157.663 162.098 156.475C163.364 155.286 164.142 153.668 164.278 151.936L169.928 64.79C170.168 64.7063 170.379 64.555 170.535 64.3544C170.691 64.1538 170.786 63.9124 170.808 63.6592L171.82 48.0656C171.838 47.8233 171.776 47.5819 171.644 47.3779C171.512 47.1739 171.318 47.0183 171.09 46.9348L172.141 30.69C172.205 29.8638 172.097 29.0334 171.823 28.2514C171.548 27.4695 171.114 26.7532 170.548 26.1481C169.982 25.5431 169.296 25.0625 168.534 24.7369C167.772 24.4114 166.951 24.248 166.122 24.2572Z" fill="#356899"/>
<path d="M104.535 55.6506H105.53C105.837 55.6451 106.132 55.5254 106.356 55.3148C106.581 55.1042 106.719 54.8178 106.744 54.511L107.184 47.999C107.195 47.8525 107.175 47.7053 107.126 47.5668C107.078 47.4282 107 47.3014 106.9 47.1942C106.799 47.0871 106.678 47.002 106.542 46.9444C106.407 46.8867 106.262 46.8578 106.115 46.8594H105.125C104.817 46.864 104.522 46.9833 104.297 47.1941C104.072 47.4049 103.934 47.6919 103.91 47.999L103.47 54.511C103.459 54.6572 103.479 54.804 103.528 54.9422C103.576 55.0805 103.653 55.2071 103.753 55.3142C103.853 55.4213 103.974 55.5065 104.109 55.5644C104.243 55.6223 104.389 55.6517 104.535 55.6506Z" fill="#356899"/>
<path d="M103.783 67.2756H104.773C105.082 67.2701 105.377 67.15 105.603 66.9385C105.828 66.7271 105.967 66.4395 105.992 66.1316L106.432 59.624C106.443 59.4775 106.423 59.3303 106.374 59.1918C106.325 59.0532 106.248 58.9264 106.148 58.8192C106.047 58.7121 105.925 58.627 105.79 58.5694C105.655 58.5117 105.509 58.4828 105.362 58.4844H104.372C104.064 58.4889 103.768 58.6081 103.543 58.8188C103.318 59.0295 103.179 59.3166 103.154 59.624L102.714 66.1316C102.701 66.2787 102.72 66.4266 102.768 66.566C102.817 66.7054 102.894 66.8331 102.994 66.9408C103.095 67.0486 103.217 67.1341 103.353 67.1918C103.489 67.2494 103.635 67.278 103.783 67.2756Z" fill="#356899"/>
<path d="M154.739 158.365H104.1C103.272 158.374 102.451 158.211 101.689 157.885C100.928 157.56 100.242 157.08 99.6766 156.475C99.1108 155.87 98.6771 155.155 98.4031 154.373C98.129 153.592 98.0207 152.762 98.0848 151.936L105.943 30.69C106.081 28.9578 106.859 27.3392 108.126 26.1498C109.392 24.9604 111.057 24.2856 112.794 24.2572H163.429C164.257 24.2486 165.078 24.4124 165.84 24.7382C166.601 25.064 167.287 25.5447 167.852 26.1497C168.418 26.7547 168.852 27.4708 169.126 28.2524C169.4 29.0341 169.508 29.8642 169.444 30.69L161.586 151.936C161.449 153.668 160.672 155.286 159.406 156.475C158.14 157.663 156.476 158.337 154.739 158.365Z" fill="#263238"/>
<path opacity="0.2" d="M132.862 153.209C134.635 151.492 134.769 148.752 133.16 147.09C131.551 145.428 128.808 145.473 127.035 147.19C125.261 148.907 125.127 151.647 126.736 153.309C128.345 154.971 131.088 154.926 132.862 153.209Z" fill="white"/>
<path d="M159.315 142.626H101.75C101.554 142.626 101.36 142.586 101.18 142.508C101 142.43 100.839 142.316 100.704 142.173C100.57 142.029 100.467 141.86 100.401 141.676C100.335 141.491 100.307 141.295 100.32 141.1L107.056 37.1188C107.086 36.7597 107.25 36.4248 107.514 36.1804C107.779 35.936 108.126 35.7998 108.486 35.7988H166.056C166.252 35.799 166.446 35.8394 166.626 35.9175C166.806 35.9955 166.967 36.1096 167.101 36.2527C167.235 36.3958 167.339 36.5648 167.405 36.7493C167.471 36.9339 167.499 37.13 167.486 37.3256L160.745 141.284C160.722 141.648 160.561 141.989 160.295 142.238C160.03 142.487 159.679 142.626 159.315 142.626Z" fill="white"/>
<path opacity="0.2" d="M143.253 101.642C149.693 95.4089 150.177 85.4641 144.336 79.4301C138.495 73.396 128.539 73.5576 122.1 79.791C115.661 86.0244 115.176 95.9692 121.018 102.003C126.859 108.037 136.814 107.876 143.253 101.642Z" fill="#356899"/>
<path opacity="0.2" d="M131.12 114.946C117.757 114.946 107.589 104.074 108.456 90.7108C109.322 77.348 120.894 66.4756 134.262 66.4756C147.629 66.4756 157.793 77.348 156.926 90.7108C156.059 104.074 144.47 114.946 131.12 114.946ZM134.2 66.9156C121.079 66.9156 109.714 77.59 108.865 90.7108C108.016 103.832 117.995 114.506 131.116 114.506C144.236 114.506 155.602 103.832 156.455 90.7108C157.309 77.59 147.338 66.9156 134.2 66.9156Z" fill="#356899"/>
<path d="M128.92 98.3267L127.6 95.7791C124.74 90.2307 118.153 85.2719 115.852 83.8287L118.026 80.5771C120.749 82.2843 126.192 86.5127 129.606 91.5375C135.92 84.0575 144.844 76.3531 156.79 68.0415L158.827 71.1215C146.067 80.0007 136.884 88.1187 130.777 95.9419L128.92 98.3267Z" fill="#356899"/>
<path opacity="0.2" d="M128.296 31.1789C129.014 30.4842 129.067 29.3747 128.414 28.7008C127.762 28.0268 126.651 28.0436 125.933 28.7383C125.216 29.433 125.163 30.5424 125.815 31.2164C126.468 31.8903 127.578 31.8735 128.296 31.1789Z" fill="white"/>
<path opacity="0.2" d="M133.281 28.2037H147.84C148.066 28.2011 148.291 28.2458 148.499 28.3349C148.707 28.4241 148.894 28.5558 149.048 28.7215C149.202 28.8872 149.32 29.0834 149.394 29.2973C149.468 29.5112 149.496 29.7382 149.477 29.9637C149.441 30.4367 149.23 30.8792 148.885 31.2047C148.54 31.5302 148.086 31.7152 147.611 31.7237H133.056C132.83 31.7256 132.606 31.6805 132.398 31.5911C132.19 31.5018 132.003 31.3702 131.848 31.2047C131.694 31.0392 131.576 30.8434 131.501 30.6298C131.427 30.4161 131.397 30.1893 131.415 29.9637C131.451 29.4908 131.662 29.0483 132.007 28.7228C132.352 28.3973 132.806 28.2122 133.281 28.2037Z" fill="white"/>
<path d="M79.0857 60.7121C78.3421 61.4733 77.5457 62.3137 76.8109 63.1497C76.0761 63.9857 75.3413 64.8437 74.6505 65.7237C73.9597 66.6037 73.3305 67.4837 72.6793 68.4121L72.2393 69.1029L71.7993 69.8025C71.6541 70.0357 71.5221 70.2733 71.3945 70.5153L71.0425 71.1621C70.899 71.532 70.8173 71.9229 70.8005 72.3193C70.7653 72.8291 70.7653 73.3407 70.8005 73.8505C70.8868 74.9505 71.0337 76.0448 71.2405 77.1285C71.4341 78.2373 71.6805 79.3505 71.9401 80.4593C72.1997 81.5681 72.4857 82.6901 72.7761 83.7813L71.1481 84.3929C70.1478 82.2408 69.3094 80.017 68.6401 77.7401C68.3003 76.5666 68.0401 75.3715 67.8613 74.1629C67.7724 73.5184 67.7268 72.8687 67.7249 72.2181C67.7146 71.4516 67.8443 70.6896 68.1077 69.9697C68.2089 69.7233 68.2617 69.6265 68.3321 69.4769L68.5345 69.0589C68.6665 68.7817 68.8029 68.5045 68.9745 68.2361L69.4145 67.4265L69.8809 66.6389C70.5024 65.6014 71.1795 64.5982 71.9093 63.6337C72.6309 62.6701 73.3789 61.7329 74.1665 60.8265C74.9541 59.9201 75.7505 59.0665 76.6657 58.1865L79.0857 60.7121Z" fill="#B55B52"/>
<path d="M79.2748 55.4323C76.89 55.5379 74.624 59.4979 74.624 59.4979L77.7744 65.9263C77.7744 65.9263 82.0424 62.3711 82.0952 58.8863C82.1304 56.6027 81.62 55.3223 79.2748 55.4323Z" fill="#356899"/>
<path opacity="0.7" d="M79.2748 55.4323C76.89 55.5379 74.624 59.4979 74.624 59.4979L77.7744 65.9263C77.7744 65.9263 82.0424 62.3711 82.0952 58.8863C82.1304 56.6027 81.62 55.3223 79.2748 55.4323Z" fill="white"/>
<path opacity="0.2" d="M79.8425 60.0521C79.1473 61.1037 78.8129 63.8317 78.7073 65.0461C79.7571 64.0251 80.6471 62.8518 81.3473 61.5657C80.8765 60.3909 80.3001 59.3613 79.8425 60.0521Z" fill="black"/>
<path d="M72.3052 83.1118L75.2048 83.9918L73.2732 85.9454C73.2732 85.9454 71.1832 85.2986 70.8928 83.8774L72.3052 83.1118Z" fill="#B55B52"/>
<path d="M76.9604 86.2054L76.472 88.0754L73.2732 85.9282L75.2048 83.9746L76.9604 86.2054Z" fill="#B55B52"/>
<path d="M96.0388 47.7977C95.9464 48.0573 96.0124 48.3213 96.184 48.3829C96.3556 48.4445 96.5668 48.2905 96.6548 48.0309C96.7428 47.7713 96.6812 47.5029 96.5096 47.4413C96.338 47.3797 96.1312 47.5337 96.0388 47.7977Z" fill="#263238"/>
<path d="M96.4304 47.4277L97.1212 47.4849C97.1212 47.4849 96.6284 47.8501 96.4304 47.4277Z" fill="#263238"/>
<path d="M96.1708 48.1323C96.1969 48.8168 96.3153 49.4947 96.5228 50.1475C96.3549 50.1915 96.1794 50.1985 96.0085 50.1681C95.8376 50.1377 95.6753 50.0706 95.5328 49.9715L96.1708 48.1323Z" fill="#A02724"/>
<path d="M96.8925 46.7817C96.8611 46.7774 96.8318 46.7638 96.8082 46.7426C96.7847 46.7214 96.7681 46.6937 96.7605 46.6629C96.7122 46.4641 96.6195 46.2787 96.4891 46.1209C96.3588 45.9631 96.1943 45.837 96.0081 45.7521C95.968 45.7373 95.9354 45.7072 95.9173 45.6686C95.8992 45.6299 95.897 45.5856 95.9113 45.5453C95.9181 45.5252 95.929 45.5066 95.9432 45.4907C95.9575 45.4748 95.9748 45.462 95.9941 45.4529C96.0134 45.4439 96.0343 45.4388 96.0556 45.4381C96.0769 45.4373 96.0982 45.4409 96.1181 45.4485C96.3576 45.5526 96.5692 45.7116 96.7358 45.9126C96.9025 46.1136 97.0194 46.3511 97.0773 46.6057C97.0825 46.6265 97.0836 46.6482 97.0805 46.6694C97.0774 46.6906 97.0701 46.711 97.059 46.7294C97.048 46.7478 97.0334 46.7639 97.0162 46.7766C96.9989 46.7894 96.9793 46.7986 96.9585 46.8037L96.8925 46.7817Z" fill="#263238"/>
<path d="M87.0012 48.9023C87.0628 50.9835 86.8516 54.7279 85.2412 55.7883C85.2412 55.7883 85.4568 57.9267 89.2012 58.6527C93.3152 59.4491 91.5024 57.0027 91.5024 57.0027C89.3464 56.0347 89.6764 54.3891 90.3232 52.9107L87.0012 48.9023Z" fill="#B55B52"/>
<path d="M99.2288 63.145C99.5984 64.1526 100.021 65.2438 100.47 66.2778C100.918 67.3118 101.35 68.359 101.873 69.3578C102.397 70.3566 102.907 71.3598 103.462 72.3322C103.748 72.8118 104.034 73.2914 104.342 73.749C104.491 73.9866 104.645 74.2154 104.808 74.431L105.046 74.7654L105.164 74.937L105.226 75.0206L105.266 75.0646C105.552 75.3901 105.88 75.6758 106.242 75.9138C106.678 76.2117 107.131 76.4849 107.598 76.7322C108.561 77.2514 109.595 77.7222 110.647 78.1666C111.698 78.611 112.772 79.0466 113.859 79.4294C114.946 79.8122 116.059 80.217 117.128 80.591L116.719 82.285C114.361 81.8908 112.031 81.3426 109.745 80.6438C108.574 80.2868 107.425 79.8623 106.304 79.3722C105.716 79.1112 105.143 78.8174 104.588 78.4922C103.944 78.1251 103.361 77.6605 102.859 77.115L102.753 76.9962L102.678 76.9038L102.533 76.7234L102.243 76.3538C102.045 76.1118 101.856 75.8654 101.68 75.6146C101.306 75.1174 100.962 74.607 100.624 74.0922C99.9559 73.071 99.3406 72.0166 98.78 70.933C98.2212 69.855 97.6932 68.7682 97.2092 67.6594C96.7252 66.5506 96.2896 65.4594 95.8892 64.245L99.2288 63.145Z" fill="#B55B52"/>
<path d="M116.547 80.5823L119.143 79.5791L119.016 82.5755C119.016 82.5755 116.912 83.1343 115.936 82.0739L116.547 80.5823Z" fill="#B55B52"/>
<path d="M121.101 80.6087L121.99 82.5227L119.016 82.5755L119.143 79.5791L121.101 80.6087Z" fill="#B55B52"/>
<path d="M78.0472 155.704L81.4836 155.959L82.5044 148.07L79.068 147.814L78.0472 155.704Z" fill="#B55B52"/>
<path d="M50.8289 137.857L53.0729 140.523L59.7345 136.242L57.4905 133.576L50.8289 137.857Z" fill="#B55B52"/>
<path d="M54.12 140.18L52.3116 136.704C52.2829 136.644 52.2329 136.596 52.1712 136.57C52.1096 136.544 52.0406 136.542 51.9772 136.563L49.104 137.558C49.0319 137.587 48.9668 137.631 48.9129 137.687C48.859 137.743 48.8176 137.81 48.7915 137.883C48.7653 137.956 48.7549 138.034 48.761 138.111C48.7671 138.189 48.7895 138.264 48.8268 138.332C49.478 139.533 49.852 140.092 50.644 141.61C51.1368 142.547 51.7572 143.973 52.4304 145.271C53.1036 146.569 54.3884 145.993 54.2212 145.39C53.4644 142.701 53.966 141.958 54.2212 140.792C54.2575 140.582 54.2218 140.367 54.12 140.18Z" fill="#263238"/>
<path d="M81.6993 155.47H77.8361C77.7696 155.469 77.705 155.492 77.6541 155.535C77.6032 155.578 77.5694 155.638 77.5589 155.703L77.0397 158.757C77.0289 158.833 77.0347 158.911 77.0566 158.984C77.0784 159.058 77.1159 159.126 77.1663 159.184C77.2168 159.242 77.2792 159.289 77.3492 159.321C77.4192 159.352 77.4952 159.369 77.5721 159.369C78.9229 159.347 79.5697 159.267 81.2681 159.267C82.3153 159.267 84.4713 159.377 85.9145 159.377C87.3577 159.377 87.4721 157.952 86.8737 157.82C84.1941 157.243 83.1557 156.443 82.2669 155.681C82.11 155.544 81.908 155.468 81.6993 155.47Z" fill="#263238"/>
<path opacity="0.2" d="M82.5045 148.07L81.9369 152.456L78.5137 152.113L79.0681 147.819L82.5045 148.07Z" fill="black"/>
<path opacity="0.2" d="M57.4905 133.576L59.7345 136.242L56.9757 138.015L54.6481 135.402L57.4905 133.576Z" fill="black"/>
<path d="M78.3199 76.3533L92.1007 79.0241C98.6127 59.8533 97.0551 59.2241 97.0551 59.2241C96.0428 58.677 94.998 58.1921 93.9267 57.7721L93.7375 57.7017C92.8575 57.3805 92.6727 57.3321 91.4935 56.9889C89.4607 56.5093 87.5731 56.1089 85.2367 55.7789L84.7967 55.7173C84.3567 55.6645 83.9519 55.6205 83.5471 55.5809C83.2743 55.5501 83.0015 55.5325 82.7419 55.5149L81.8619 55.4665C80.3571 55.3917 79.2791 55.4137 79.2791 55.4137C80.0359 67.3861 79.4595 70.8313 78.3199 76.3533Z" fill="#356899"/>
<path opacity="0.7" d="M78.3199 76.3533L92.1007 79.0241C98.6127 59.8533 97.0551 59.2241 97.0551 59.2241C96.0428 58.677 94.998 58.1921 93.9267 57.7721L93.7375 57.7017C92.8575 57.3805 92.6727 57.3321 91.4935 56.9889C89.4607 56.5093 87.5731 56.1089 85.2367 55.7789L84.7967 55.7173C84.3567 55.6645 83.9519 55.6205 83.5471 55.5809C83.2743 55.5501 83.0015 55.5325 82.7419 55.5149L81.8619 55.4665C80.3571 55.3917 79.2791 55.4137 79.2791 55.4137C80.0359 67.3861 79.4595 70.8313 78.3199 76.3533Z" fill="white"/>
<path opacity="0.2" d="M95.0752 63.6995L93.83 63.4971C93.83 65.1383 94.4548 67.9543 95.062 69.7451C95.5768 67.9851 95.9772 66.5375 96.2808 65.3187L95.0752 63.6995Z" fill="black"/>
<path d="M96.5757 58.9913C98.6129 59.6425 100.096 63.6729 100.65 65.4109L96.6901 70.0617C96.6901 70.0617 92.6333 64.2317 93.2801 62.4233C93.9137 60.5401 95.5901 58.6701 96.5757 58.9913Z" fill="#356899"/>
<path opacity="0.7" d="M96.5757 58.9913C98.6129 59.6425 100.096 63.6729 100.65 65.4109L96.6901 70.0617C96.6901 70.0617 92.6333 64.2317 93.2801 62.4233C93.9137 60.5401 95.5901 58.6701 96.5757 58.9913Z" fill="white"/>
<path d="M97.8956 44.1103C97.4864 45.3115 95.6956 45.7911 93.9136 45.1883C92.1316 44.5855 91.0052 43.1115 91.4144 41.9103C91.8236 40.7091 93.6144 40.2295 95.3744 40.8367C97.1344 41.4439 98.3004 42.9091 97.8956 44.1103Z" fill="#263238"/>
<path d="M87.56 43.7809C86.6448 47.0545 86.1872 48.4185 87.2344 50.6713C88.8096 54.0637 93.0248 54.5961 94.8992 51.6877C96.5844 49.0741 97.7988 44.1593 95.106 41.6997C94.5377 41.1505 93.836 40.7589 93.0701 40.5637C92.3043 40.3685 91.5008 40.3763 90.7389 40.5864C89.9771 40.7966 89.2831 41.2017 88.7257 41.7619C88.1682 42.3221 87.7664 43.018 87.56 43.7809Z" fill="#B55B52"/>
<path d="M92.6728 39.9569C91.3528 40.7137 88.55 35.9749 85.0696 39.9569C82.5792 42.8125 84.1676 46.9969 84.1676 46.9969C84.1676 46.9969 82.1832 43.5077 80.5992 45.2105C78.5312 47.4105 80.6696 55.2821 87.4896 54.7409C94.3096 54.1997 93.6496 48.6645 93.6496 48.6645C93.6496 48.6645 96.844 45.4173 96.6856 42.5045C96.5668 40.3221 94.8728 38.7117 92.6728 39.9569Z" fill="#263238"/>
<path d="M93.5 46.5921C93.3299 47.2012 93.3514 47.848 93.5616 48.4445C93.8432 49.2849 94.49 49.2893 94.8332 48.7085C95.1764 48.1277 95.3656 47.1201 94.8772 46.4425C94.3888 45.7649 93.72 45.9189 93.5 46.5921Z" fill="#B55B52"/>
<path d="M88.4401 78.312C88.4401 78.312 86.9705 83.4072 85.0829 90.1304C83.8289 94.6096 82.3857 99.8104 81.0701 104.708C80.3177 107.51 79.6093 110.212 78.9977 112.628C75.5393 126.29 58.2913 138.033 58.2913 138.033L54.9517 134.359C54.9517 134.359 66.5413 124.6 69.9117 111.853C76.7185 85.9768 72.8905 81.612 78.3157 76.354L88.4401 78.312Z" fill="#263238"/>
<path opacity="0.2" d="M86.9528 82.8791C86.4424 84.8547 85.8 87.3495 85.0916 90.1391C83.8376 94.6183 82.3944 99.8191 81.0788 104.716C80.5156 98.4683 80.1988 86.9799 84.7968 83.4071C85.7032 82.7119 86.4204 82.5667 86.9528 82.8791Z" fill="black"/>
<path d="M58.5773 138.561L54.4061 133.971L55.6689 132.704L60.7861 137.526L58.5773 138.561Z" fill="#356899"/>
<path opacity="0.7" d="M58.5773 138.561L54.4061 133.971L55.6689 132.704L60.7861 137.526L58.5773 138.561Z" fill="white"/>
<path d="M54.7492 142.046C54.7073 142.045 54.6657 142.038 54.626 142.024C54.2168 141.874 53.9572 141.091 53.8384 140.638C53.8346 140.623 53.8355 140.606 53.8409 140.591C53.8464 140.576 53.8563 140.564 53.8692 140.554C53.882 140.545 53.8974 140.54 53.9132 140.54C53.929 140.54 53.9444 140.545 53.9572 140.554C54.0804 140.625 55.1628 141.258 55.1848 141.703C55.1885 141.751 55.1789 141.8 55.1572 141.843C55.1355 141.886 55.1025 141.923 55.0616 141.949C54.9717 142.016 54.8614 142.051 54.7492 142.046ZM54.0496 140.792C54.23 141.386 54.4588 141.786 54.6832 141.866C54.7312 141.88 54.7821 141.883 54.8313 141.873C54.8805 141.863 54.9264 141.841 54.9648 141.808C55.022 141.769 55.0264 141.729 55.022 141.703C55 141.474 54.4764 141.06 54.0496 140.792Z" fill="#356899"/>
<path d="M91.8808 79.0249C91.8808 79.0249 92.7608 106.226 90.816 116.473C88.8184 127.152 82.72 151.352 82.72 151.352L77.7656 150.714C77.7656 150.714 80.8984 126.224 82.2316 115.637C83.6792 104.092 81.7916 77.0537 81.7916 77.0537L91.8808 79.0249Z" fill="#263238"/>
<path d="M83.7849 151.655L76.7229 150.744L76.8065 149.063L84.4933 149.398L83.7849 151.655Z" fill="#356899"/>
<path opacity="0.7" d="M83.7849 151.655L76.7229 150.744L76.8065 149.063L84.4933 149.398L83.7849 151.655Z" fill="white"/>
<path d="M54.9165 140.981C54.551 140.964 54.1943 140.863 53.8737 140.686C53.8617 140.679 53.8518 140.669 53.8448 140.656C53.8379 140.644 53.8342 140.63 53.8341 140.616C53.836 140.602 53.841 140.588 53.8486 140.576C53.8561 140.564 53.8662 140.554 53.8781 140.546C53.9177 140.546 54.7581 140.084 55.2421 140.264C55.3028 140.286 55.3579 140.321 55.4035 140.367C55.4491 140.412 55.4842 140.467 55.5061 140.528C55.535 140.587 55.5434 140.653 55.5298 140.717C55.5162 140.781 55.4815 140.838 55.4313 140.88C55.275 140.968 55.0945 141.004 54.9165 140.981ZM54.0937 140.625C54.4765 140.801 55.1453 140.898 55.3301 140.752C55.3609 140.726 55.3917 140.686 55.3301 140.585C55.3172 140.546 55.2953 140.511 55.2663 140.482C55.2372 140.453 55.2019 140.431 55.1629 140.418C54.7938 140.377 54.4208 140.449 54.0937 140.625Z" fill="#356899"/>
<path d="M82.9753 156.068C82.6129 156.06 82.252 156.019 81.8973 155.945C81.8804 155.943 81.8647 155.935 81.8527 155.923C81.8407 155.911 81.8332 155.896 81.8313 155.879C81.8286 155.862 81.8315 155.845 81.8394 155.83C81.8474 155.815 81.8599 155.802 81.8753 155.795C82.0337 155.712 83.4241 155.012 83.8377 155.245C83.8771 155.267 83.9101 155.299 83.9333 155.337C83.9565 155.376 83.969 155.42 83.9697 155.465C83.9782 155.538 83.9682 155.613 83.9405 155.681C83.9129 155.75 83.8684 155.81 83.8113 155.857C83.5641 156.019 83.2697 156.093 82.9753 156.068ZM82.1701 155.83C82.9269 155.958 83.4901 155.923 83.7057 155.738C83.7427 155.705 83.7712 155.664 83.7889 155.618C83.8065 155.572 83.8127 155.523 83.8069 155.474C83.8081 155.456 83.8043 155.438 83.7957 155.423C83.7871 155.407 83.7742 155.394 83.7585 155.386C83.5341 155.263 82.7421 155.557 82.1701 155.83Z" fill="#356899"/>
<path d="M81.9149 155.95C81.8991 155.954 81.8824 155.954 81.8665 155.95C81.8547 155.942 81.8452 155.93 81.839 155.917C81.8328 155.904 81.8302 155.89 81.8313 155.875C81.8313 155.814 82.0029 154.326 82.8345 154.414C83.0545 154.436 83.1205 154.546 83.1337 154.639C83.1953 155.026 82.3637 155.774 81.9457 155.959L81.9149 155.95ZM82.7685 154.555C82.2757 154.555 82.0777 155.369 82.0161 155.721C82.4561 155.466 83.0105 154.881 82.9753 154.648C82.9753 154.648 82.9753 154.573 82.8169 154.56L82.7685 154.555Z" fill="#356899"/>
<path d="M78.2321 75.5137L77.4093 76.6181C77.3477 76.7061 77.4445 76.8249 77.6029 76.8557L92.0569 79.6541C92.1801 79.6541 92.2945 79.6541 92.3121 79.5617L92.6421 78.3561C92.6421 78.2769 92.5673 78.1801 92.4309 78.1537L78.4741 75.4521C78.4318 75.4407 78.3874 75.4405 78.345 75.4512C78.3026 75.462 78.2637 75.4835 78.2321 75.5137Z" fill="#356899"/>
<path d="M79.8513 77.4319L79.4773 77.3571C79.4025 77.3571 79.3541 77.2955 79.3673 77.2515L79.8073 75.6895C79.8073 75.6455 79.8953 75.6191 79.9657 75.6323L80.3397 75.7071C80.4145 75.7071 80.4673 75.7687 80.4541 75.8127L80.0141 77.3747C79.9965 77.4319 79.9261 77.4319 79.8513 77.4319Z" fill="#263238"/>
<path d="M89.2893 79.2753L88.9153 79.2049C88.8405 79.2049 88.7921 79.1389 88.8053 79.0949L89.2453 77.5373C89.2453 77.4889 89.3289 77.4625 89.4037 77.4801L89.7777 77.5505C89.8481 77.5505 89.9009 77.6165 89.8877 77.6605L89.4477 79.2181C89.4345 79.2665 89.3641 79.2929 89.2893 79.2753Z" fill="#263238"/>
</svg>
